<svg id="Layer_1" data-name="Layer 1" xmlns="http://www.w3.org/2000/svg" viewBox="0 0 127.4 29.83"><defs><style>.cls-1{fill:#fff;}</style></defs><title>sysboard</title><path class="cls-1" d="M4.6,17.38c0.22,1.34,1.31,2,3,2,1.34,0,2.2-.41,2.2-1.12,0-.51-0.45-0.89-1.4-1.05l-3.23-.57C2.49,16.19.57,14.66,0.57,12c0-3.29,2.81-5.21,6.93-5.21,3.29,0,7,1.28,7.25,5.37H10.13C10,11,8.88,10.35,7.51,10.35s-1.95.51-1.95,1.15,0.38,1,1.63,1.25l2.88,0.48c2.91,0.54,4.85,1.82,4.85,4.6,0,3.58-3.13,5.33-7.28,5.33S0.32,21.46,0,17.34Z"/><path class="cls-1" d="M24.62,29.83H19.16l2.94-7L14.76,7.19h5.46l4.47,9.55,4-9.55h5.43Z"/><path class="cls-1" d="M38.26,17.38c0.22,1.34,1.31,2,3,2,1.34,0,2.2-.41,2.2-1.12,0-.51-0.45-0.89-1.41-1.05l-3.23-.57c-2.65-.41-4.57-1.95-4.57-4.63,0-3.29,2.81-5.21,6.93-5.21,3.29,0,7,1.28,7.25,5.37H43.79c-0.1-1.18-1.25-1.79-2.62-1.79s-1.95.51-1.95,1.15,0.38,1,1.63,1.25l2.88,0.48c2.91,0.54,4.85,1.82,4.85,4.6,0,3.58-3.13,5.33-7.28,5.33S34,21.46,33.67,17.34Z"/><path class="cls-1" d="M66.47,15.3a7.68,7.68,0,0,1-7.63,7.76,7.59,7.59,0,0,1-5.37-2v1.66H51.3V0h2.17V9.58a7.59,7.59,0,0,1,5.37-2A7.68,7.68,0,0,1,66.47,15.3Zm-2.2,0a5.79,5.79,0,0,0-5.72-5.88,5.94,5.94,0,0,0-5.08,2.78v6.2a5.91,5.91,0,0,0,5.08,2.75A5.78,5.78,0,0,0,64.26,15.3Z"/><path class="cls-1" d="M84.12,15.3a7.84,7.84,0,1,1-15.68,0A7.84,7.84,0,0,1,84.12,15.3Zm-2.2,0a5.64,5.64,0,1,0-11.27,0A5.64,5.64,0,1,0,81.91,15.3Z"/><path class="cls-1" d="M101.26,7.92V22.68h-2.2V21a7.51,7.51,0,0,1-5.33,2,7.69,7.69,0,0,1-7.63-7.79,7.68,7.68,0,0,1,7.63-7.76,7.51,7.51,0,0,1,5.33,2V7.92h2.2Zm-2.2,10.57V12.14a6,6,0,0,0-5-2.68,5.76,5.76,0,0,0-5.72,5.85A5.77,5.77,0,0,0,94,21.18,6,6,0,0,0,99.05,18.49Z"/><path class="cls-1" d="M106.79,10.48a7,7,0,0,1,5.78-2.94V9.61A6.82,6.82,0,0,0,106.79,13v9.65h-2.17V7.92h2.17v2.56Z"/><path class="cls-1" d="M127.4,22.68h-2.2V21a7.49,7.49,0,0,1-5.33,2,7.68,7.68,0,0,1-7.63-7.76,7.68,7.68,0,0,1,7.63-7.76,7.49,7.49,0,0,1,5.33,2V0h2.2V22.68Zm-2.2-4.22V12.14a5.93,5.93,0,0,0-5-2.71,5.77,5.77,0,0,0-5.72,5.88,5.76,5.76,0,0,0,5.72,5.85A6,6,0,0,0,125.19,18.46Z"/></svg>